<svg xmlns="http://www.w3.org/2000/svg" xmlns:xlink="http://www.w3.org/1999/xlink" width="500" zoomAndPan="magnify" viewBox="0 0 375 374.999991" height="500" preserveAspectRatio="xMidYMid meet" version="1.0"><defs><g/><clipPath id="64d6d48719"><path d="M 5 54.375 L 375 54.375 L 375 320.625 L 5 320.625 Z M 5 54.375 " clip-rule="nonzero"/></clipPath><clipPath id="ff02653af9"><path d="M 5 241 L 263 241 L 263 320.625 L 5 320.625 Z M 5 241 " clip-rule="nonzero"/></clipPath></defs><g fill="#000000" fill-opacity="1"><g transform="translate(66.940517, 193.124987)"><g><path d="M 5.578125 0 L 4.25 0 L 4.25 -4.484375 L 0.296875 -11.421875 L 1.765625 -11.421875 L 4.84375 -6.078125 L 5.046875 -6.078125 L 8.09375 -11.421875 L 9.53125 -11.421875 L 5.578125 -4.484375 Z M 5.578125 0 "/></g></g></g><g fill="#000000" fill-opacity="1"><g transform="translate(76.758437, 193.124987)"><g><path d="M 4.953125 0.171875 C 4.140625 0.171875 3.429688 0 2.828125 -0.34375 C 2.222656 -0.695312 1.757812 -1.207031 1.4375 -1.875 C 1.113281 -2.539062 0.953125 -3.351562 0.953125 -4.3125 C 0.953125 -5.257812 1.113281 -6.066406 1.4375 -6.734375 C 1.757812 -7.410156 2.222656 -7.921875 2.828125 -8.265625 C 3.429688 -8.609375 4.140625 -8.78125 4.953125 -8.78125 C 5.765625 -8.78125 6.46875 -8.609375 7.0625 -8.265625 C 7.664062 -7.921875 8.128906 -7.410156 8.453125 -6.734375 C 8.785156 -6.066406 8.953125 -5.257812 8.953125 -4.3125 C 8.953125 -3.351562 8.785156 -2.539062 8.453125 -1.875 C 8.128906 -1.207031 7.664062 -0.695312 7.0625 -0.34375 C 6.46875 0 5.765625 0.171875 4.953125 0.171875 Z M 4.953125 -0.984375 C 5.804688 -0.984375 6.460938 -1.253906 6.921875 -1.796875 C 7.378906 -2.335938 7.609375 -3.175781 7.609375 -4.3125 C 7.609375 -5.445312 7.378906 -6.285156 6.921875 -6.828125 C 6.460938 -7.367188 5.804688 -7.640625 4.953125 -7.640625 C 4.085938 -7.640625 3.425781 -7.367188 2.96875 -6.828125 C 2.507812 -6.285156 2.28125 -5.445312 2.28125 -4.3125 C 2.28125 -3.175781 2.507812 -2.335938 2.96875 -1.796875 C 3.425781 -1.253906 4.085938 -0.984375 4.953125 -0.984375 Z M 4.953125 -0.984375 "/></g></g></g><g fill="#000000" fill-opacity="1"><g transform="translate(86.646647, 193.124987)"><g><path d="M 4.265625 0.171875 C 3.285156 0.171875 2.554688 -0.0859375 2.078125 -0.609375 C 1.609375 -1.128906 1.375 -1.882812 1.375 -2.875 L 1.375 -8.625 L 2.640625 -8.625 L 2.640625 -2.90625 C 2.640625 -1.601562 3.253906 -0.953125 4.484375 -0.953125 C 5.265625 -0.953125 5.878906 -1.207031 6.328125 -1.71875 C 6.785156 -2.226562 7.015625 -3.054688 7.015625 -4.203125 L 7.015625 -8.625 L 8.296875 -8.625 L 8.296875 0 L 7.09375 0 L 7.09375 -1.359375 L 6.921875 -1.390625 C 6.628906 -0.867188 6.273438 -0.476562 5.859375 -0.21875 C 5.441406 0.0390625 4.910156 0.171875 4.265625 0.171875 Z M 4.265625 0.171875 "/></g></g></g><g fill="#000000" fill-opacity="1"><g transform="translate(96.433324, 193.124987)"><g><path d="M 1.5 0 L 1.5 -8.625 L 2.71875 -8.625 L 2.71875 -7.265625 L 2.875 -7.234375 C 3.28125 -8.210938 4.035156 -8.703125 5.140625 -8.703125 C 5.734375 -8.703125 6.175781 -8.59375 6.46875 -8.375 L 6.140625 -7.296875 L 5.984375 -7.265625 C 5.660156 -7.429688 5.304688 -7.515625 4.921875 -7.515625 C 4.234375 -7.515625 3.703125 -7.253906 3.328125 -6.734375 C 2.960938 -6.222656 2.78125 -5.390625 2.78125 -4.234375 L 2.78125 0 Z M 1.5 0 "/></g></g></g><g fill="#000000" fill-opacity="1"><g transform="translate(103.087949, 193.124987)"><g/></g></g><g fill="#000000" fill-opacity="1"><g transform="translate(107.008866, 193.124987)"><g><path d="M 1.5 3.5 L 1.5 -8.625 L 2.78125 -8.625 L 2.78125 -7.328125 L 2.9375 -7.296875 C 3.582031 -8.285156 4.523438 -8.78125 5.765625 -8.78125 C 6.484375 -8.78125 7.109375 -8.613281 7.640625 -8.28125 C 8.179688 -7.957031 8.597656 -7.460938 8.890625 -6.796875 C 9.191406 -6.128906 9.34375 -5.300781 9.34375 -4.3125 C 9.34375 -3.320312 9.1875 -2.492188 8.875 -1.828125 C 8.5625 -1.160156 8.128906 -0.660156 7.578125 -0.328125 C 7.023438 0.00390625 6.390625 0.171875 5.671875 0.171875 C 5.085938 0.171875 4.566406 0.0664062 4.109375 -0.140625 C 3.660156 -0.347656 3.269531 -0.679688 2.9375 -1.140625 L 2.78125 -1.109375 L 2.78125 3.5 Z M 5.390625 -0.984375 C 7.128906 -0.984375 8 -2.09375 8 -4.3125 C 8 -6.53125 7.128906 -7.640625 5.390625 -7.640625 C 4.878906 -7.640625 4.425781 -7.519531 4.03125 -7.28125 C 3.644531 -7.050781 3.335938 -6.6875 3.109375 -6.1875 C 2.890625 -5.695312 2.78125 -5.070312 2.78125 -4.3125 C 2.78125 -3.550781 2.890625 -2.921875 3.109375 -2.421875 C 3.335938 -1.929688 3.644531 -1.566406 4.03125 -1.328125 C 4.425781 -1.097656 4.878906 -0.984375 5.390625 -0.984375 Z M 5.390625 -0.984375 "/></g></g></g><g fill="#000000" fill-opacity="1"><g transform="translate(117.287605, 193.124987)"><g><path d="M 3.5625 0.171875 C 2.707031 0.171875 2.039062 -0.0507812 1.5625 -0.5 C 1.09375 -0.945312 0.859375 -1.582031 0.859375 -2.40625 C 0.859375 -2.914062 0.960938 -3.34375 1.171875 -3.6875 C 1.378906 -4.039062 1.703125 -4.328125 2.140625 -4.546875 C 2.585938 -4.773438 3.171875 -4.945312 3.890625 -5.0625 C 4.515625 -5.164062 4.988281 -5.28125 5.3125 -5.40625 C 5.632812 -5.539062 5.851562 -5.6875 5.96875 -5.84375 C 6.082031 -6.007812 6.140625 -6.21875 6.140625 -6.46875 C 6.140625 -6.851562 6.003906 -7.148438 5.734375 -7.359375 C 5.460938 -7.566406 5.03125 -7.671875 4.4375 -7.671875 C 3.882812 -7.671875 3.40625 -7.5625 3 -7.34375 C 2.601562 -7.132812 2.238281 -6.816406 1.90625 -6.390625 L 1.75 -6.390625 L 1.125 -7.265625 C 1.488281 -7.734375 1.953125 -8.101562 2.515625 -8.375 C 3.078125 -8.644531 3.71875 -8.78125 4.4375 -8.78125 C 5.457031 -8.78125 6.207031 -8.554688 6.6875 -8.109375 C 7.164062 -7.671875 7.40625 -7.054688 7.40625 -6.265625 L 7.40625 -1.703125 C 7.40625 -1.222656 7.609375 -0.984375 8.015625 -0.984375 C 8.148438 -0.984375 8.28125 -1.003906 8.40625 -1.046875 L 8.515625 -1.015625 L 8.671875 -0.140625 C 8.578125 -0.078125 8.453125 -0.03125 8.296875 0 C 8.140625 0.0390625 7.984375 0.0625 7.828125 0.0625 C 7.347656 0.0625 6.988281 -0.0390625 6.75 -0.25 C 6.507812 -0.457031 6.351562 -0.765625 6.28125 -1.171875 L 6.125 -1.1875 C 5.875 -0.738281 5.539062 -0.398438 5.125 -0.171875 C 4.707031 0.0546875 4.1875 0.171875 3.5625 0.171875 Z M 3.84375 -0.859375 C 4.320312 -0.859375 4.734375 -0.96875 5.078125 -1.1875 C 5.429688 -1.40625 5.703125 -1.710938 5.890625 -2.109375 C 6.078125 -2.515625 6.171875 -2.984375 6.171875 -3.515625 L 6.171875 -4.609375 L 6.03125 -4.640625 C 5.832031 -4.503906 5.59375 -4.390625 5.3125 -4.296875 C 5.039062 -4.203125 4.660156 -4.117188 4.171875 -4.046875 C 3.671875 -3.984375 3.269531 -3.878906 2.96875 -3.734375 C 2.675781 -3.597656 2.46875 -3.421875 2.34375 -3.203125 C 2.21875 -2.984375 2.15625 -2.71875 2.15625 -2.40625 C 2.15625 -1.894531 2.300781 -1.507812 2.59375 -1.25 C 2.894531 -0.988281 3.3125 -0.859375 3.84375 -0.859375 Z M 3.84375 -0.859375 "/></g></g></g><g fill="#000000" fill-opacity="1"><g transform="translate(126.199497, 193.124987)"><g><path d="M 1.5 0 L 1.5 -8.625 L 2.71875 -8.625 L 2.71875 -7.265625 L 2.875 -7.234375 C 3.28125 -8.210938 4.035156 -8.703125 5.140625 -8.703125 C 5.734375 -8.703125 6.175781 -8.59375 6.46875 -8.375 L 6.140625 -7.296875 L 5.984375 -7.265625 C 5.660156 -7.429688 5.304688 -7.515625 4.921875 -7.515625 C 4.234375 -7.515625 3.703125 -7.253906 3.328125 -6.734375 C 2.960938 -6.222656 2.78125 -5.390625 2.78125 -4.234375 L 2.78125 0 Z M 1.5 0 "/></g></g></g><g fill="#000000" fill-opacity="1"><g transform="translate(132.854121, 193.124987)"><g><path d="M 3.5625 0.171875 C 2.707031 0.171875 2.039062 -0.0507812 1.5625 -0.5 C 1.09375 -0.945312 0.859375 -1.582031 0.859375 -2.40625 C 0.859375 -2.914062 0.960938 -3.34375 1.171875 -3.6875 C 1.378906 -4.039062 1.703125 -4.328125 2.140625 -4.546875 C 2.585938 -4.773438 3.171875 -4.945312 3.890625 -5.0625 C 4.515625 -5.164062 4.988281 -5.28125 5.3125 -5.40625 C 5.632812 -5.539062 5.851562 -5.6875 5.96875 -5.84375 C 6.082031 -6.007812 6.140625 -6.21875 6.140625 -6.46875 C 6.140625 -6.851562 6.003906 -7.148438 5.734375 -7.359375 C 5.460938 -7.566406 5.03125 -7.671875 4.4375 -7.671875 C 3.882812 -7.671875 3.40625 -7.5625 3 -7.34375 C 2.601562 -7.132812 2.238281 -6.816406 1.90625 -6.390625 L 1.75 -6.390625 L 1.125 -7.265625 C 1.488281 -7.734375 1.953125 -8.101562 2.515625 -8.375 C 3.078125 -8.644531 3.71875 -8.78125 4.4375 -8.78125 C 5.457031 -8.78125 6.207031 -8.554688 6.6875 -8.109375 C 7.164062 -7.671875 7.40625 -7.054688 7.40625 -6.265625 L 7.40625 -1.703125 C 7.40625 -1.222656 7.609375 -0.984375 8.015625 -0.984375 C 8.148438 -0.984375 8.28125 -1.003906 8.40625 -1.046875 L 8.515625 -1.015625 L 8.671875 -0.140625 C 8.578125 -0.078125 8.453125 -0.03125 8.296875 0 C 8.140625 0.0390625 7.984375 0.0625 7.828125 0.0625 C 7.347656 0.0625 6.988281 -0.0390625 6.75 -0.25 C 6.507812 -0.457031 6.351562 -0.765625 6.28125 -1.171875 L 6.125 -1.1875 C 5.875 -0.738281 5.539062 -0.398438 5.125 -0.171875 C 4.707031 0.0546875 4.1875 0.171875 3.5625 0.171875 Z M 3.84375 -0.859375 C 4.320312 -0.859375 4.734375 -0.96875 5.078125 -1.1875 C 5.429688 -1.40625 5.703125 -1.710938 5.890625 -2.109375 C 6.078125 -2.515625 6.171875 -2.984375 6.171875 -3.515625 L 6.171875 -4.609375 L 6.03125 -4.640625 C 5.832031 -4.503906 5.59375 -4.390625 5.3125 -4.296875 C 5.039062 -4.203125 4.660156 -4.117188 4.171875 -4.046875 C 3.671875 -3.984375 3.269531 -3.878906 2.96875 -3.734375 C 2.675781 -3.597656 2.46875 -3.421875 2.34375 -3.203125 C 2.21875 -2.984375 2.15625 -2.71875 2.15625 -2.40625 C 2.15625 -1.894531 2.300781 -1.507812 2.59375 -1.25 C 2.894531 -0.988281 3.3125 -0.859375 3.84375 -0.859375 Z M 3.84375 -0.859375 "/></g></g></g><g fill="#000000" fill-opacity="1"><g transform="translate(141.766013, 193.124987)"><g><path d="M 4.4375 3.65625 C 3.082031 3.65625 2.09375 3.425781 1.46875 2.96875 C 0.84375 2.519531 0.53125 1.921875 0.53125 1.171875 C 0.53125 0.691406 0.675781 0.304688 0.96875 0.015625 C 1.257812 -0.273438 1.679688 -0.484375 2.234375 -0.609375 L 2.234375 -0.765625 C 1.972656 -0.921875 1.773438 -1.097656 1.640625 -1.296875 C 1.503906 -1.503906 1.4375 -1.75 1.4375 -2.03125 C 1.4375 -2.363281 1.539062 -2.632812 1.75 -2.84375 C 1.96875 -3.050781 2.285156 -3.207031 2.703125 -3.3125 L 2.703125 -3.484375 C 1.765625 -3.972656 1.296875 -4.773438 1.296875 -5.890625 C 1.296875 -6.453125 1.421875 -6.953125 1.671875 -7.390625 C 1.929688 -7.828125 2.296875 -8.164062 2.765625 -8.40625 C 3.242188 -8.65625 3.796875 -8.78125 4.421875 -8.78125 C 5.148438 -8.78125 5.753906 -8.625 6.234375 -8.3125 C 6.421875 -8.507812 6.554688 -8.722656 6.640625 -8.953125 C 6.734375 -9.191406 6.796875 -9.457031 6.828125 -9.75 L 6.984375 -9.84375 L 8.03125 -9.59375 C 7.976562 -9.15625 7.847656 -8.785156 7.640625 -8.484375 C 7.429688 -8.179688 7.132812 -7.929688 6.75 -7.734375 L 6.75 -7.578125 C 7.019531 -7.359375 7.222656 -7.097656 7.359375 -6.796875 C 7.492188 -6.503906 7.5625 -6.164062 7.5625 -5.78125 C 7.5625 -5.238281 7.429688 -4.75 7.171875 -4.3125 C 6.910156 -3.882812 6.539062 -3.546875 6.0625 -3.296875 C 5.59375 -3.046875 5.046875 -2.921875 4.421875 -2.921875 C 4.347656 -2.921875 4.21875 -2.925781 4.03125 -2.9375 C 3.820312 -2.945312 3.671875 -2.953125 3.578125 -2.953125 C 3.304688 -2.953125 3.085938 -2.878906 2.921875 -2.734375 C 2.765625 -2.597656 2.6875 -2.421875 2.6875 -2.203125 C 2.6875 -1.929688 2.769531 -1.734375 2.9375 -1.609375 C 3.113281 -1.484375 3.40625 -1.410156 3.8125 -1.390625 L 5.84375 -1.328125 C 6.726562 -1.296875 7.378906 -1.085938 7.796875 -0.703125 C 8.222656 -0.328125 8.4375 0.207031 8.4375 0.90625 C 8.4375 1.414062 8.296875 1.878906 8.015625 2.296875 C 7.742188 2.710938 7.304688 3.039062 6.703125 3.28125 C 6.109375 3.53125 5.351562 3.65625 4.4375 3.65625 Z M 4.421875 -4.015625 C 5.035156 -4.015625 5.507812 -4.171875 5.84375 -4.484375 C 6.175781 -4.804688 6.34375 -5.253906 6.34375 -5.828125 C 6.34375 -6.421875 6.175781 -6.878906 5.84375 -7.203125 C 5.507812 -7.523438 5.035156 -7.6875 4.421875 -7.6875 C 3.804688 -7.6875 3.335938 -7.523438 3.015625 -7.203125 C 2.691406 -6.890625 2.53125 -6.429688 2.53125 -5.828125 C 2.53125 -5.253906 2.691406 -4.804688 3.015625 -4.484375 C 3.335938 -4.171875 3.804688 -4.015625 4.421875 -4.015625 Z M 4.4375 2.5625 C 5.070312 2.5625 5.59375 2.488281 6 2.34375 C 6.40625 2.207031 6.695312 2.023438 6.875 1.796875 C 7.050781 1.566406 7.140625 1.304688 7.140625 1.015625 C 7.140625 0.765625 7.085938 0.5625 6.984375 0.40625 C 6.890625 0.25 6.734375 0.128906 6.515625 0.046875 C 6.304688 -0.0351562 6.019531 -0.0859375 5.65625 -0.109375 L 3.71875 -0.203125 L 3.453125 -0.203125 C 2.367188 -0.179688 1.828125 0.238281 1.828125 1.0625 C 1.828125 2.0625 2.695312 2.5625 4.4375 2.5625 Z M 4.4375 2.5625 "/></g></g></g><g fill="#000000" fill-opacity="1"><g transform="translate(150.591982, 193.124987)"><g><path d="M 1.5 0 L 1.5 -8.625 L 2.71875 -8.625 L 2.71875 -7.265625 L 2.875 -7.234375 C 3.28125 -8.210938 4.035156 -8.703125 5.140625 -8.703125 C 5.734375 -8.703125 6.175781 -8.59375 6.46875 -8.375 L 6.140625 -7.296875 L 5.984375 -7.265625 C 5.660156 -7.429688 5.304688 -7.515625 4.921875 -7.515625 C 4.234375 -7.515625 3.703125 -7.253906 3.328125 -6.734375 C 2.960938 -6.222656 2.78125 -5.390625 2.78125 -4.234375 L 2.78125 0 Z M 1.5 0 "/></g></g></g><g fill="#000000" fill-opacity="1"><g transform="translate(157.246606, 193.124987)"><g><path d="M 3.5625 0.171875 C 2.707031 0.171875 2.039062 -0.0507812 1.5625 -0.5 C 1.09375 -0.945312 0.859375 -1.582031 0.859375 -2.40625 C 0.859375 -2.914062 0.960938 -3.34375 1.171875 -3.6875 C 1.378906 -4.039062 1.703125 -4.328125 2.140625 -4.546875 C 2.585938 -4.773438 3.171875 -4.945312 3.890625 -5.0625 C 4.515625 -5.164062 4.988281 -5.28125 5.3125 -5.40625 C 5.632812 -5.539062 5.851562 -5.6875 5.96875 -5.84375 C 6.082031 -6.007812 6.140625 -6.21875 6.140625 -6.46875 C 6.140625 -6.851562 6.003906 -7.148438 5.734375 -7.359375 C 5.460938 -7.566406 5.03125 -7.671875 4.4375 -7.671875 C 3.882812 -7.671875 3.40625 -7.5625 3 -7.34375 C 2.601562 -7.132812 2.238281 -6.816406 1.90625 -6.390625 L 1.75 -6.390625 L 1.125 -7.265625 C 1.488281 -7.734375 1.953125 -8.101562 2.515625 -8.375 C 3.078125 -8.644531 3.71875 -8.78125 4.4375 -8.78125 C 5.457031 -8.78125 6.207031 -8.554688 6.6875 -8.109375 C 7.164062 -7.671875 7.40625 -7.054688 7.40625 -6.265625 L 7.40625 -1.703125 C 7.40625 -1.222656 7.609375 -0.984375 8.015625 -0.984375 C 8.148438 -0.984375 8.28125 -1.003906 8.40625 -1.046875 L 8.515625 -1.015625 L 8.671875 -0.140625 C 8.578125 -0.078125 8.453125 -0.03125 8.296875 0 C 8.140625 0.0390625 7.984375 0.0625 7.828125 0.0625 C 7.347656 0.0625 6.988281 -0.0390625 6.75 -0.25 C 6.507812 -0.457031 6.351562 -0.765625 6.28125 -1.171875 L 6.125 -1.1875 C 5.875 -0.738281 5.539062 -0.398438 5.125 -0.171875 C 4.707031 0.0546875 4.1875 0.171875 3.5625 0.171875 Z M 3.84375 -0.859375 C 4.320312 -0.859375 4.734375 -0.96875 5.078125 -1.1875 C 5.429688 -1.40625 5.703125 -1.710938 5.890625 -2.109375 C 6.078125 -2.515625 6.171875 -2.984375 6.171875 -3.515625 L 6.171875 -4.609375 L 6.03125 -4.640625 C 5.832031 -4.503906 5.59375 -4.390625 5.3125 -4.296875 C 5.039062 -4.203125 4.660156 -4.117188 4.171875 -4.046875 C 3.671875 -3.984375 3.269531 -3.878906 2.96875 -3.734375 C 2.675781 -3.597656 2.46875 -3.421875 2.34375 -3.203125 C 2.21875 -2.984375 2.15625 -2.71875 2.15625 -2.40625 C 2.15625 -1.894531 2.300781 -1.507812 2.59375 -1.25 C 2.894531 -0.988281 3.3125 -0.859375 3.84375 -0.859375 Z M 3.84375 -0.859375 "/></g></g></g><g fill="#000000" fill-opacity="1"><g transform="translate(166.158498, 193.124987)"><g><path d="M 1.5 3.5 L 1.5 -8.625 L 2.78125 -8.625 L 2.78125 -7.328125 L 2.9375 -7.296875 C 3.582031 -8.285156 4.523438 -8.78125 5.765625 -8.78125 C 6.484375 -8.78125 7.109375 -8.613281 7.640625 -8.28125 C 8.179688 -7.957031 8.597656 -7.460938 8.890625 -6.796875 C 9.191406 -6.128906 9.34375 -5.300781 9.34375 -4.3125 C 9.34375 -3.320312 9.1875 -2.492188 8.875 -1.828125 C 8.5625 -1.160156 8.128906 -0.660156 7.578125 -0.328125 C 7.023438 0.00390625 6.390625 0.171875 5.671875 0.171875 C 5.085938 0.171875 4.566406 0.0664062 4.109375 -0.140625 C 3.660156 -0.347656 3.269531 -0.679688 2.9375 -1.140625 L 2.78125 -1.109375 L 2.78125 3.5 Z M 5.390625 -0.984375 C 7.128906 -0.984375 8 -2.09375 8 -4.3125 C 8 -6.53125 7.128906 -7.640625 5.390625 -7.640625 C 4.878906 -7.640625 4.425781 -7.519531 4.03125 -7.28125 C 3.644531 -7.050781 3.335938 -6.6875 3.109375 -6.1875 C 2.890625 -5.695312 2.78125 -5.070312 2.78125 -4.3125 C 2.78125 -3.550781 2.890625 -2.921875 3.109375 -2.421875 C 3.335938 -1.929688 3.644531 -1.566406 4.03125 -1.328125 C 4.425781 -1.097656 4.878906 -0.984375 5.390625 -0.984375 Z M 5.390625 -0.984375 "/></g></g></g><g fill="#000000" fill-opacity="1"><g transform="translate(176.437237, 193.124987)"><g><path d="M 1.5 0 L 1.5 -12.078125 L 2.78125 -12.078125 L 2.78125 -7.390625 L 2.9375 -7.359375 C 3.550781 -8.304688 4.441406 -8.78125 5.609375 -8.78125 C 6.640625 -8.78125 7.390625 -8.515625 7.859375 -7.984375 C 8.328125 -7.460938 8.5625 -6.648438 8.5625 -5.546875 L 8.5625 0 L 7.28125 0 L 7.28125 -5.515625 C 7.28125 -6.035156 7.210938 -6.453125 7.078125 -6.765625 C 6.953125 -7.085938 6.75 -7.316406 6.46875 -7.453125 C 6.1875 -7.597656 5.820312 -7.671875 5.375 -7.671875 C 4.59375 -7.671875 3.960938 -7.414062 3.484375 -6.90625 C 3.015625 -6.40625 2.78125 -5.578125 2.78125 -4.421875 L 2.78125 0 Z M 1.5 0 "/></g></g></g><g fill="#000000" fill-opacity="1"><g transform="translate(186.356689, 193.124987)"><g/></g></g><g fill="#000000" fill-opacity="1"><g transform="translate(190.277606, 193.124987)"><g><path d="M 5.828125 -1.375 L 6.234375 -0.453125 C 6.035156 -0.253906 5.769531 -0.101562 5.4375 0 C 5.101562 0.113281 4.742188 0.171875 4.359375 0.171875 C 2.710938 0.171875 1.890625 -0.664062 1.890625 -2.34375 L 1.890625 -7.578125 L 0.390625 -7.578125 L 0.390625 -8.625 L 1.890625 -8.625 L 1.890625 -10.453125 L 3.171875 -10.65625 L 3.171875 -8.625 L 5.9375 -8.625 L 5.9375 -7.578125 L 3.171875 -7.578125 L 3.171875 -2.46875 C 3.171875 -1.476562 3.597656 -0.984375 4.453125 -0.984375 C 4.921875 -0.984375 5.328125 -1.113281 5.671875 -1.375 Z M 5.828125 -1.375 "/></g></g></g><g fill="#000000" fill-opacity="1"><g transform="translate(196.838504, 193.124987)"><g><path d="M 8.21875 -4.015625 L 2.296875 -4.015625 C 2.328125 -2.972656 2.578125 -2.207031 3.046875 -1.71875 C 3.515625 -1.226562 4.15625 -0.984375 4.96875 -0.984375 C 5.582031 -0.984375 6.078125 -1.09375 6.453125 -1.3125 C 6.828125 -1.53125 7.117188 -1.875 7.328125 -2.34375 L 7.5 -2.34375 L 8.328125 -1.84375 C 8.078125 -1.21875 7.675781 -0.722656 7.125 -0.359375 C 6.570312 -0.00390625 5.851562 0.171875 4.96875 0.171875 C 4.132812 0.171875 3.414062 0.00390625 2.8125 -0.328125 C 2.21875 -0.660156 1.757812 -1.160156 1.4375 -1.828125 C 1.113281 -2.492188 0.953125 -3.320312 0.953125 -4.3125 C 0.953125 -5.289062 1.117188 -6.113281 1.453125 -6.78125 C 1.796875 -7.457031 2.265625 -7.957031 2.859375 -8.28125 C 3.453125 -8.613281 4.128906 -8.78125 4.890625 -8.78125 C 5.992188 -8.78125 6.851562 -8.46875 7.46875 -7.84375 C 8.09375 -7.226562 8.40625 -6.304688 8.40625 -5.078125 C 8.40625 -4.597656 8.394531 -4.273438 8.375 -4.109375 Z M 7.15625 -5.078125 C 7.132812 -5.992188 6.929688 -6.660156 6.546875 -7.078125 C 6.160156 -7.492188 5.609375 -7.703125 4.890625 -7.703125 C 4.128906 -7.703125 3.535156 -7.492188 3.109375 -7.078125 C 2.679688 -6.660156 2.421875 -5.992188 2.328125 -5.078125 Z M 7.15625 -5.078125 "/></g></g></g><g fill="#000000" fill-opacity="1"><g transform="translate(206.02376, 193.124987)"><g><path d="M 1.796875 0 L 0.390625 0 L 3.0625 -4.46875 L 0.53125 -8.625 L 1.96875 -8.625 L 3.953125 -5.3125 L 4.140625 -5.3125 L 6.140625 -8.625 L 7.515625 -8.625 L 5.046875 -4.46875 L 7.640625 0 L 6.203125 0 L 4.078125 -3.640625 L 3.90625 -3.640625 Z M 1.796875 0 "/></g></g></g><g fill="#000000" fill-opacity="1"><g transform="translate(214.053049, 193.124987)"><g><path d="M 5.828125 -1.375 L 6.234375 -0.453125 C 6.035156 -0.253906 5.769531 -0.101562 5.4375 0 C 5.101562 0.113281 4.742188 0.171875 4.359375 0.171875 C 2.710938 0.171875 1.890625 -0.664062 1.890625 -2.34375 L 1.890625 -7.578125 L 0.390625 -7.578125 L 0.390625 -8.625 L 1.890625 -8.625 L 1.890625 -10.453125 L 3.171875 -10.65625 L 3.171875 -8.625 L 5.9375 -8.625 L 5.9375 -7.578125 L 3.171875 -7.578125 L 3.171875 -2.46875 C 3.171875 -1.476562 3.597656 -0.984375 4.453125 -0.984375 C 4.921875 -0.984375 5.328125 -1.113281 5.671875 -1.375 Z M 5.828125 -1.375 "/></g></g></g><g clip-path="url(#64d6d48719)"><path fill="#a274ff" d="M 261.464844 55.140625 C 244.382812 72.207031 228.734375 88.140625 212.636719 103.613281 C 210.253906 105.898438 205.75 106.902344 202.210938 106.925781 C 163.710938 107.15625 125.203125 106.867188 86.703125 107.15625 C 64.574219 107.320312 51.242188 128.480469 61.300781 146.871094 C 65.914062 155.296875 73.101562 160.800781 82.773438 160.890625 C 118.585938 161.238281 154.40625 161.203125 190.210938 160.90625 C 193.226562 160.882812 196.792969 158.441406 199.121094 156.132812 C 231.117188 124.40625 262.824219 92.375 294.984375 60.808594 C 298.332031 57.53125 304.082031 55.203125 308.792969 55.066406 C 329.945312 54.457031 351.128906 54.800781 372.3125 54.800781 C 328.570312 98.28125 284.992188 141.582031 241.480469 184.828125 C 287.210938 230.183594 330.945312 273.5625 374.6875 316.945312 C 374.105469 318.035156 373.523438 319.121094 372.945312 320.214844 C 366.921875 320.214844 360.90625 320.214844 354.882812 320.214844 C 339.664062 320.214844 324.429688 319.917969 309.226562 320.363281 C 303 320.542969 298.699219 318.503906 294.386719 314.148438 C 263.101562 282.542969 231.71875 251.046875 199.984375 219.894531 C 196.628906 216.605469 190.84375 214.207031 186.152344 214.140625 C 152.433594 213.648438 118.695312 214.453125 84.976562 213.691406 C 53.59375 212.984375 29.203125 198.914062 14.652344 170.664062 C 0.320312 142.835938 2.332031 115.121094 19.664062 89.175781 C 33.199219 68.9375 52.878906 56.019531 77.0625 55.542969 C 137.890625 54.332031 198.765625 55.140625 261.464844 55.140625 Z M 261.464844 55.140625 " fill-opacity="1" fill-rule="nonzero"/></g><g clip-path="url(#ff02653af9)"><path fill="#a274ff" d="M 6.113281 241.316406 C 20.90625 248.261719 35.105469 256.5625 50.390625 261.597656 C 63.183594 265.820312 77.210938 267.761719 90.746094 268.03125 C 127.734375 268.765625 164.746094 267.894531 201.742188 268.195312 C 206.1875 268.230469 211.59375 270.539062 214.863281 273.59375 C 230.453125 288.171875 245.449219 303.375 262.074219 319.746094 C 257.390625 320 255.105469 320.222656 252.820312 320.222656 C 196.71875 320.230469 140.617188 320.453125 84.515625 320.140625 C 42.269531 319.894531 7.921875 287.261719 5.851562 246.132812 C 5.757812 244.175781 6.054688 242.203125 6.113281 241.316406 Z M 6.113281 241.316406 " fill-opacity="1" fill-rule="nonzero"/></g></svg>